<svg xmlns="http://www.w3.org/2000/svg" xmlns:xlink="http://www.w3.org/1999/xlink" width="120" zoomAndPan="magnify" viewBox="0 0 90 44.999999" height="60" preserveAspectRatio="xMidYMid meet" version="1.0"><defs><g/><clipPath id="852a8d440c"><path d="M 7 13 L 81 13 L 81 37 L 7 37 Z M 7 13 " clip-rule="nonzero"/></clipPath><clipPath id="c05209979d"><path d="M 6.542969 15.617188 L 80.003906 13.269531 L 80.675781 34.257812 L 7.210938 36.605469 Z M 6.542969 15.617188 " clip-rule="nonzero"/></clipPath><clipPath id="26c4a8dd44"><path d="M 6.542969 15.617188 L 80.003906 13.269531 L 80.675781 34.257812 L 7.210938 36.605469 Z M 6.542969 15.617188 " clip-rule="nonzero"/></clipPath></defs><g clip-path="url(#852a8d440c)"><g clip-path="url(#c05209979d)"><g clip-path="url(#26c4a8dd44)"><path fill="#c7e5e8" d="M 77.339844 14.066406 C 79.84375 16.820312 80.191406 18.664062 78.785156 21.605469 C 78.992188 22.371094 79.164062 23.183594 79.414062 23.96875 C 79.660156 24.757812 79.980469 25.535156 80.3125 26.441406 C 79.097656 27.289062 78.71875 28.683594 78.074219 30.027344 C 77.441406 30.105469 76.792969 30.207031 76.144531 30.253906 C 69.050781 30.746094 61.929688 31.148438 54.859375 31.742188 C 49.597656 32.175781 44.378906 32.910156 39.203125 33.941406 C 37.386719 34.304688 35.5625 34.308594 33.710938 34.339844 C 28.839844 34.40625 24.023438 34.949219 19.261719 35.96875 C 16.5625 36.554688 13.953125 36.34375 11.324219 35.699219 C 8.105469 34.917969 8.105469 34.925781 7.300781 31.921875 C 7.117188 31.238281 7.101562 30.515625 7.605469 30.03125 C 8.667969 29.027344 8.628906 27.769531 8.539062 26.527344 C 8.429688 24.8125 8.9375 23.230469 9.40625 21.632812 C 9.511719 21.210938 9.734375 20.867188 10.070312 20.597656 C 10.410156 20.324219 10.796875 20.1875 11.230469 20.179688 C 12.648438 20.035156 14.054688 19.808594 15.460938 19.617188 C 15.878906 19.585938 16.292969 19.519531 16.699219 19.414062 C 21.4375 17.910156 26.398438 17.800781 31.261719 17.078125 C 34.171875 16.644531 37.082031 16.300781 39.996094 16.066406 C 42.648438 15.871094 45.300781 15.730469 47.964844 15.648438 C 52.472656 15.503906 56.96875 14.914062 61.46875 14.484375 C 61.964844 14.417969 62.449219 14.296875 62.917969 14.121094 C 63.828125 13.769531 64.714844 13.820312 65.574219 14.277344 C 66.199219 14.523438 66.84375 14.625 67.515625 14.582031 C 68.519531 14.570312 69.523438 14.503906 70.519531 14.382812 C 71.679688 14.246094 72.828125 13.941406 73.996094 13.90625 C 75.113281 13.898438 76.230469 13.953125 77.339844 14.066406 Z M 77.339844 14.066406 " fill-opacity="1" fill-rule="nonzero"/></g></g></g><g fill="#545454" fill-opacity="1"><g transform="translate(10.135528, 31.761907)"><g><path d="M 16.5625 -11.140625 C 16.6875 -11.160156 16.796875 -11.128906 16.890625 -11.046875 C 16.953125 -10.953125 16.953125 -10.835938 16.890625 -10.703125 C 15.609375 -8.097656 13.859375 -5.757812 11.640625 -3.6875 C 10.296875 -2.488281 8.925781 -1.644531 7.53125 -1.15625 C 6.125 -0.65625 4.84375 -0.546875 3.6875 -0.828125 C 2.5 -1.109375 1.59375 -1.820312 0.96875 -2.96875 C 0.207031 -4.539062 -0.03125 -6.460938 0.25 -8.734375 C 0.382812 -9.898438 0.613281 -11.066406 0.9375 -12.234375 C 1.257812 -13.398438 1.664062 -14.566406 2.15625 -15.734375 C 3.15625 -18.085938 4.40625 -20.125 5.90625 -21.84375 C 7.21875 -23.289062 8.570312 -24.296875 9.96875 -24.859375 C 11.375 -25.429688 12.550781 -25.457031 13.5 -24.9375 C 14.4375 -24.425781 14.867188 -23.238281 14.796875 -21.375 C 14.734375 -20.53125 14.5625 -19.664062 14.28125 -18.78125 C 14 -17.90625 13.613281 -17.003906 13.125 -16.078125 C 12.351562 -14.742188 11.523438 -13.757812 10.640625 -13.125 C 9.742188 -12.488281 9.082031 -12.320312 8.65625 -12.625 C 8.40625 -12.863281 8.382812 -13.222656 8.59375 -13.703125 C 8.800781 -14.140625 9.117188 -14.492188 9.546875 -14.765625 C 9.679688 -14.867188 9.820312 -14.890625 9.96875 -14.828125 C 10.09375 -14.765625 10.144531 -14.660156 10.125 -14.515625 C 10.125 -14.367188 10.023438 -14.21875 9.828125 -14.0625 C 9.785156 -14.03125 9.742188 -13.992188 9.703125 -13.953125 C 9.660156 -13.921875 9.625 -13.875 9.59375 -13.8125 C 9.507812 -13.726562 9.4375 -13.644531 9.375 -13.5625 C 9.320312 -13.488281 9.3125 -13.425781 9.34375 -13.375 C 9.445312 -13.28125 9.789062 -13.441406 10.375 -13.859375 C 10.96875 -14.296875 11.617188 -15.082031 12.328125 -16.21875 C 13.242188 -17.945312 13.769531 -19.609375 13.90625 -21.203125 C 13.976562 -22.847656 13.609375 -23.859375 12.796875 -24.234375 C 11.953125 -24.578125 10.957031 -24.46875 9.8125 -23.90625 C 8.644531 -23.351562 7.546875 -22.503906 6.515625 -21.359375 C 5.140625 -19.785156 3.960938 -17.863281 2.984375 -15.59375 C 2.015625 -13.332031 1.398438 -11.125 1.140625 -8.96875 C 0.867188 -6.757812 1.078125 -4.9375 1.765625 -3.5 C 2.335938 -2.457031 3.140625 -1.84375 4.171875 -1.65625 C 5.222656 -1.4375 6.359375 -1.5625 7.578125 -2.03125 C 8.828125 -2.46875 10.035156 -3.195312 11.203125 -4.21875 C 12.285156 -5.226562 13.25 -6.285156 14.09375 -7.390625 C 14.9375 -8.503906 15.660156 -9.671875 16.265625 -10.890625 C 16.335938 -11.035156 16.4375 -11.117188 16.5625 -11.140625 Z M 16.5625 -11.140625 "/></g></g></g><g fill="#545454" fill-opacity="1"><g transform="translate(26.626448, 31.237036)"><g><path d="M 9.390625 -10.828125 C 9.578125 -10.953125 9.726562 -10.992188 9.84375 -10.953125 C 9.96875 -10.898438 10.035156 -10.796875 10.046875 -10.640625 C 10.046875 -10.484375 9.96875 -10.34375 9.8125 -10.21875 C 9.4375 -9.914062 9.0625 -9.628906 8.6875 -9.359375 C 8.3125 -9.097656 7.929688 -8.847656 7.546875 -8.609375 C 6.773438 -8.140625 6.007812 -7.890625 5.25 -7.859375 C 4.8125 -7.847656 4.5 -7.929688 4.3125 -8.109375 C 4.113281 -8.285156 3.988281 -8.507812 3.9375 -8.78125 C 3.894531 -9.019531 3.867188 -9.257812 3.859375 -9.5 C 3.867188 -9.894531 3.835938 -10.15625 3.765625 -10.28125 C 3.710938 -10.414062 3.585938 -10.484375 3.390625 -10.484375 C 3.023438 -10.460938 2.578125 -10.238281 2.046875 -9.8125 C 1.796875 -9.59375 1.535156 -9.359375 1.265625 -9.109375 C 0.992188 -8.859375 0.722656 -8.59375 0.453125 -8.3125 C 0.367188 -8.25 0.285156 -8.179688 0.203125 -8.109375 C 0.128906 -8.035156 0.0546875 -7.957031 -0.015625 -7.875 C -0.179688 -7.738281 -0.359375 -7.671875 -0.546875 -7.671875 C -0.742188 -7.703125 -0.847656 -7.800781 -0.859375 -7.96875 C -0.890625 -8.082031 -0.875 -8.320312 -0.8125 -8.6875 C -0.75 -9.050781 -0.648438 -9.539062 -0.515625 -10.15625 C -0.378906 -10.78125 -0.1875 -11.617188 0.0625 -12.671875 C 0.3125 -13.734375 0.609375 -15.015625 0.953125 -16.515625 C 1.097656 -17.085938 1.238281 -17.664062 1.375 -18.25 C 1.519531 -18.832031 1.65625 -19.410156 1.78125 -19.984375 C 1.851562 -20.179688 1.960938 -20.3125 2.109375 -20.375 C 2.253906 -20.445312 2.394531 -20.445312 2.53125 -20.375 C 2.644531 -20.320312 2.679688 -20.203125 2.640625 -20.015625 C 2.503906 -19.441406 2.367188 -18.863281 2.234375 -18.28125 C 2.097656 -17.695312 1.957031 -17.117188 1.8125 -16.546875 C 1.664062 -15.835938 1.503906 -15.132812 1.328125 -14.4375 C 1.160156 -13.738281 0.992188 -13.039062 0.828125 -12.34375 C 0.671875 -11.65625 0.53125 -11.035156 0.40625 -10.484375 C 0.289062 -9.941406 0.195312 -9.472656 0.125 -9.078125 C 0.71875 -9.691406 1.304688 -10.21875 1.890625 -10.65625 C 2.503906 -11.082031 3.070312 -11.304688 3.59375 -11.328125 C 3.96875 -11.335938 4.234375 -11.257812 4.390625 -11.09375 C 4.546875 -10.914062 4.648438 -10.710938 4.703125 -10.484375 C 4.710938 -10.359375 4.722656 -10.234375 4.734375 -10.109375 C 4.742188 -9.992188 4.742188 -9.878906 4.734375 -9.765625 C 4.753906 -9.359375 4.804688 -9.082031 4.890625 -8.9375 C 4.972656 -8.78125 5.15625 -8.707031 5.4375 -8.71875 C 6.070312 -8.738281 6.707031 -8.957031 7.34375 -9.375 C 7.675781 -9.582031 8.003906 -9.800781 8.328125 -10.03125 C 8.648438 -10.269531 8.984375 -10.523438 9.328125 -10.796875 Z M 9.390625 -10.828125 "/></g></g></g><g fill="#545454" fill-opacity="1"><g transform="translate(36.233834, 30.931254)"><g><path d="M 0.46875 -11.859375 C 0.570312 -11.859375 0.675781 -11.894531 0.78125 -11.96875 C 0.863281 -12.03125 0.929688 -12.125 0.984375 -12.25 L 1.0625 -12.515625 L 1.21875 -12.96875 C 1.269531 -13.070312 1.269531 -13.179688 1.21875 -13.296875 C 1.175781 -13.378906 1.101562 -13.4375 1 -13.46875 C 0.894531 -13.488281 0.785156 -13.457031 0.671875 -13.375 C 0.578125 -13.320312 0.492188 -13.234375 0.421875 -13.109375 C 0.378906 -13.003906 0.34375 -12.90625 0.3125 -12.8125 C 0.28125 -12.71875 0.253906 -12.628906 0.234375 -12.546875 L 0.203125 -12.546875 C 0.203125 -12.503906 0.1875 -12.425781 0.15625 -12.3125 C 0.113281 -12.195312 0.128906 -12.097656 0.203125 -12.015625 C 0.242188 -11.929688 0.316406 -11.878906 0.421875 -11.859375 Z M 4.65625 -10.59375 C 4.800781 -10.738281 4.953125 -10.789062 5.109375 -10.75 C 5.253906 -10.71875 5.335938 -10.640625 5.359375 -10.515625 C 5.378906 -10.378906 5.320312 -10.226562 5.1875 -10.0625 C 3.632812 -8.539062 2.296875 -7.765625 1.171875 -7.734375 C 0.554688 -7.710938 0.140625 -7.832031 -0.078125 -8.09375 C -0.328125 -8.375 -0.460938 -8.734375 -0.484375 -9.171875 C -0.492188 -9.628906 -0.425781 -10.140625 -0.28125 -10.703125 C -0.226562 -10.929688 -0.113281 -11.085938 0.0625 -11.171875 C 0.21875 -11.242188 0.351562 -11.25 0.46875 -11.1875 C 0.59375 -11.113281 0.628906 -10.960938 0.578125 -10.734375 C 0.421875 -10.148438 0.367188 -9.65625 0.421875 -9.25 C 0.472656 -8.875 0.726562 -8.660156 1.1875 -8.609375 C 2.070312 -8.546875 3.226562 -9.207031 4.65625 -10.59375 Z M 4.65625 -10.59375 "/></g></g></g><g fill="#545454" fill-opacity="1"><g transform="translate(41.217006, 30.772651)"><g><path d="M -0.109375 3.734375 C 0.535156 3.097656 1.175781 1.835938 1.8125 -0.046875 C 2.125 -0.972656 2.414062 -1.914062 2.6875 -2.875 C 2.957031 -3.832031 3.210938 -4.804688 3.453125 -5.796875 C 2.785156 -4.992188 2.195312 -4.195312 1.6875 -3.40625 C 1.1875 -2.625 0.738281 -1.832031 0.34375 -1.03125 C -0.382812 0.5625 -0.789062 1.84375 -0.875 2.8125 C -0.925781 3.207031 -0.878906 3.523438 -0.734375 3.765625 C -0.628906 3.984375 -0.421875 3.972656 -0.109375 3.734375 Z M 9.484375 -11 C 9.660156 -11.070312 9.800781 -11.050781 9.90625 -10.9375 C 9.988281 -10.820312 10 -10.691406 9.9375 -10.546875 C 9.875 -10.378906 9.753906 -10.265625 9.578125 -10.203125 C 7.734375 -9.578125 6.070312 -8.523438 4.59375 -7.046875 C 4.28125 -5.691406 3.957031 -4.414062 3.625 -3.21875 C 3.300781 -2.019531 2.96875 -0.910156 2.625 0.109375 C 1.914062 2.171875 1.160156 3.578125 0.359375 4.328125 C -0.171875 4.742188 -0.660156 4.875 -1.109375 4.71875 C -1.566406 4.539062 -1.785156 3.96875 -1.765625 3 C -1.710938 2.351562 -1.546875 1.628906 -1.265625 0.828125 C -0.992188 0.0234375 -0.613281 -0.851562 -0.125 -1.8125 C 0.363281 -2.769531 0.929688 -3.707031 1.578125 -4.625 C 2.234375 -5.550781 2.972656 -6.445312 3.796875 -7.3125 L 4.28125 -9.421875 C 4.300781 -9.472656 4.3125 -9.519531 4.3125 -9.5625 C 4.320312 -9.601562 4.332031 -9.648438 4.34375 -9.703125 C 3.9375 -9.328125 3.550781 -9.007812 3.1875 -8.75 C 2.832031 -8.5 2.503906 -8.304688 2.203125 -8.171875 C 1.566406 -7.890625 1.050781 -7.742188 0.65625 -7.734375 C 0.144531 -7.710938 -0.195312 -7.867188 -0.375 -8.203125 C -0.539062 -8.492188 -0.597656 -8.878906 -0.546875 -9.359375 C -0.515625 -9.835938 -0.382812 -10.34375 -0.15625 -10.875 C -0.0820312 -11.070312 0.03125 -11.191406 0.1875 -11.234375 C 0.34375 -11.285156 0.476562 -11.269531 0.59375 -11.1875 C 0.695312 -11.113281 0.71875 -10.972656 0.65625 -10.765625 C 0.601562 -10.617188 0.550781 -10.46875 0.5 -10.3125 C 0.445312 -10.15625 0.398438 -10 0.359375 -9.84375 C 0.285156 -9.488281 0.285156 -9.195312 0.359375 -8.96875 C 0.410156 -8.71875 0.578125 -8.597656 0.859375 -8.609375 C 1.035156 -8.617188 1.3125 -8.6875 1.6875 -8.8125 C 2.039062 -8.914062 2.460938 -9.160156 2.953125 -9.546875 C 3.460938 -9.910156 4.039062 -10.441406 4.6875 -11.140625 C 4.851562 -11.335938 5.035156 -11.414062 5.234375 -11.375 C 5.421875 -11.320312 5.488281 -11.160156 5.4375 -10.890625 C 5.425781 -10.785156 5.40625 -10.644531 5.375 -10.46875 C 5.34375 -10.289062 5.300781 -10.101562 5.25 -9.90625 C 5.195312 -9.707031 5.140625 -9.476562 5.078125 -9.21875 C 5.015625 -8.957031 4.953125 -8.671875 4.890625 -8.359375 C 6.296875 -9.585938 7.828125 -10.46875 9.484375 -11 Z M 9.484375 -11 "/></g></g></g><g fill="#545454" fill-opacity="1"><g transform="translate(50.887737, 30.464852)"><g><path d="M 2.046875 -9.671875 C 2.128906 -9.992188 2.144531 -10.238281 2.09375 -10.40625 C 2.03125 -10.5625 1.957031 -10.632812 1.875 -10.625 C 1.769531 -10.625 1.679688 -10.546875 1.609375 -10.390625 C 1.554688 -10.273438 1.570312 -10.140625 1.65625 -9.984375 C 1.707031 -9.847656 1.835938 -9.742188 2.046875 -9.671875 Z M 6.234375 -10.6875 C 6.398438 -10.820312 6.546875 -10.859375 6.671875 -10.796875 C 6.804688 -10.753906 6.878906 -10.660156 6.890625 -10.515625 C 6.910156 -10.390625 6.847656 -10.242188 6.703125 -10.078125 C 6.035156 -9.535156 5.328125 -9.164062 4.578125 -8.96875 C 3.816406 -8.757812 3.113281 -8.675781 2.46875 -8.71875 C 1.945312 -8.03125 1.375 -7.675781 0.75 -7.65625 C 0.207031 -7.632812 -0.175781 -7.863281 -0.40625 -8.34375 C -0.644531 -8.800781 -0.597656 -9.476562 -0.265625 -10.375 C -0.171875 -10.550781 -0.0507812 -10.664062 0.09375 -10.71875 C 0.25 -10.75 0.378906 -10.726562 0.484375 -10.65625 C 0.585938 -10.582031 0.601562 -10.441406 0.53125 -10.234375 C 0.351562 -9.816406 0.285156 -9.425781 0.328125 -9.0625 C 0.367188 -8.695312 0.578125 -8.519531 0.953125 -8.53125 C 1.210938 -8.539062 1.4375 -8.644531 1.625 -8.84375 C 1.1875 -8.988281 0.910156 -9.210938 0.796875 -9.515625 C 0.671875 -9.828125 0.671875 -10.140625 0.796875 -10.453125 C 0.984375 -10.992188 1.289062 -11.316406 1.71875 -11.421875 C 2.144531 -11.554688 2.492188 -11.46875 2.765625 -11.15625 C 3.046875 -10.875 3.082031 -10.332031 2.875 -9.53125 C 4.050781 -9.507812 5.171875 -9.894531 6.234375 -10.6875 Z M 6.234375 -10.6875 "/></g></g></g><g fill="#545454" fill-opacity="1"><g transform="translate(47.051849, 28.914435)"><g><path d="M 1.4375 -2.546875 C 1.457031 -2.648438 1.5 -2.726562 1.5625 -2.78125 C 1.632812 -2.832031 1.710938 -2.859375 1.796875 -2.859375 C 1.890625 -2.859375 1.96875 -2.832031 2.03125 -2.78125 C 2.101562 -2.726562 2.148438 -2.648438 2.171875 -2.546875 L 2.5625 -0.765625 L 3.03125 -2.703125 C 3.050781 -2.753906 3.082031 -2.796875 3.125 -2.828125 C 3.164062 -2.859375 3.210938 -2.875 3.265625 -2.875 C 3.296875 -2.875 3.328125 -2.867188 3.359375 -2.859375 C 3.484375 -2.828125 3.546875 -2.753906 3.546875 -2.640625 C 3.546875 -2.628906 3.546875 -2.617188 3.546875 -2.609375 C 3.546875 -2.597656 3.539062 -2.585938 3.53125 -2.578125 L 2.953125 -0.3125 C 2.921875 -0.207031 2.867188 -0.128906 2.796875 -0.078125 C 2.734375 -0.0351562 2.660156 -0.015625 2.578125 -0.015625 C 2.492188 -0.015625 2.414062 -0.0351562 2.34375 -0.078125 C 2.28125 -0.128906 2.238281 -0.207031 2.21875 -0.3125 L 1.796875 -2.15625 L 1.390625 -0.3125 C 1.367188 -0.207031 1.320312 -0.128906 1.25 -0.078125 C 1.1875 -0.0351562 1.113281 -0.015625 1.03125 -0.015625 C 0.9375 -0.015625 0.851562 -0.0351562 0.78125 -0.078125 C 0.71875 -0.128906 0.675781 -0.207031 0.65625 -0.3125 L 0.078125 -2.578125 C 0.0664062 -2.585938 0.0625 -2.597656 0.0625 -2.609375 C 0.0625 -2.617188 0.0625 -2.628906 0.0625 -2.640625 C 0.0625 -2.753906 0.125 -2.828125 0.25 -2.859375 C 0.28125 -2.867188 0.3125 -2.875 0.34375 -2.875 C 0.394531 -2.875 0.441406 -2.859375 0.484375 -2.828125 C 0.523438 -2.796875 0.554688 -2.753906 0.578125 -2.703125 L 1.046875 -0.765625 Z M 1.4375 -2.546875 "/></g></g></g><g fill="#545454" fill-opacity="1"><g transform="translate(51.293392, 28.914435)"><g><path d="M 0.71875 -2.828125 L 2.203125 -2.828125 C 2.265625 -2.828125 2.3125 -2.800781 2.34375 -2.75 C 2.375 -2.695312 2.390625 -2.648438 2.390625 -2.609375 C 2.390625 -2.566406 2.375 -2.519531 2.34375 -2.46875 C 2.3125 -2.414062 2.265625 -2.390625 2.203125 -2.390625 L 0.9375 -2.390625 C 0.882812 -2.390625 0.859375 -2.363281 0.859375 -2.3125 L 0.859375 -1.703125 L 2.046875 -1.703125 C 2.109375 -1.703125 2.148438 -1.675781 2.171875 -1.625 C 2.203125 -1.570312 2.21875 -1.523438 2.21875 -1.484375 C 2.21875 -1.441406 2.203125 -1.394531 2.171875 -1.34375 C 2.148438 -1.289062 2.109375 -1.265625 2.046875 -1.265625 L 0.859375 -1.265625 L 0.859375 -0.578125 C 0.859375 -0.523438 0.882812 -0.5 0.9375 -0.5 L 2.265625 -0.5 C 2.328125 -0.5 2.375 -0.472656 2.40625 -0.421875 C 2.4375 -0.367188 2.453125 -0.320312 2.453125 -0.28125 C 2.453125 -0.238281 2.4375 -0.191406 2.40625 -0.140625 C 2.375 -0.0859375 2.328125 -0.0625 2.265625 -0.0625 L 0.71875 -0.0625 C 0.46875 -0.0625 0.34375 -0.179688 0.34375 -0.421875 L 0.34375 -2.453125 C 0.34375 -2.703125 0.46875 -2.828125 0.71875 -2.828125 Z M 0.71875 -2.828125 "/></g></g></g><g fill="#545454" fill-opacity="1"><g transform="translate(54.50515, 28.914435)"><g><path d="M 0.734375 -2.828125 L 1.4375 -2.828125 C 1.570312 -2.828125 1.695312 -2.816406 1.8125 -2.796875 C 1.925781 -2.773438 2.019531 -2.742188 2.09375 -2.703125 C 2.21875 -2.648438 2.3125 -2.570312 2.375 -2.46875 C 2.445312 -2.375 2.484375 -2.265625 2.484375 -2.140625 C 2.484375 -1.984375 2.441406 -1.847656 2.359375 -1.734375 C 2.273438 -1.617188 2.128906 -1.539062 1.921875 -1.5 C 2.378906 -1.4375 2.609375 -1.210938 2.609375 -0.828125 C 2.609375 -0.703125 2.578125 -0.582031 2.515625 -0.46875 C 2.453125 -0.363281 2.351562 -0.273438 2.21875 -0.203125 C 2.144531 -0.160156 2.046875 -0.125 1.921875 -0.09375 C 1.804688 -0.0703125 1.671875 -0.0625 1.515625 -0.0625 L 0.734375 -0.0625 C 0.472656 -0.0625 0.34375 -0.1875 0.34375 -0.4375 L 0.34375 -2.453125 C 0.34375 -2.703125 0.472656 -2.828125 0.734375 -2.828125 Z M 1.421875 -2.4375 L 0.9375 -2.4375 C 0.882812 -2.4375 0.859375 -2.410156 0.859375 -2.359375 L 0.859375 -1.703125 L 1.421875 -1.703125 C 1.515625 -1.703125 1.597656 -1.710938 1.671875 -1.734375 C 1.753906 -1.765625 1.820312 -1.804688 1.875 -1.859375 C 1.925781 -1.921875 1.953125 -1.992188 1.953125 -2.078125 C 1.953125 -2.171875 1.910156 -2.253906 1.828125 -2.328125 C 1.753906 -2.398438 1.617188 -2.4375 1.421875 -2.4375 Z M 0.859375 -1.296875 L 0.859375 -0.578125 C 0.859375 -0.515625 0.890625 -0.484375 0.953125 -0.484375 L 1.453125 -0.484375 C 1.640625 -0.484375 1.785156 -0.507812 1.890625 -0.5625 C 1.992188 -0.625 2.046875 -0.726562 2.046875 -0.875 C 2.046875 -1 1.992188 -1.097656 1.890625 -1.171875 C 1.796875 -1.253906 1.640625 -1.296875 1.421875 -1.296875 Z M 0.859375 -1.296875 "/></g></g></g><g fill="#545454" fill-opacity="1"><g transform="translate(57.963684, 28.914435)"><g><path d="M 0.78125 -2.828125 L 1.359375 -2.828125 C 1.523438 -2.828125 1.675781 -2.804688 1.8125 -2.765625 C 1.957031 -2.734375 2.082031 -2.6875 2.1875 -2.625 C 2.375 -2.519531 2.523438 -2.363281 2.640625 -2.15625 C 2.765625 -1.957031 2.828125 -1.722656 2.828125 -1.453125 C 2.828125 -1.179688 2.769531 -0.941406 2.65625 -0.734375 C 2.539062 -0.523438 2.382812 -0.363281 2.1875 -0.25 C 1.957031 -0.125 1.675781 -0.0625 1.34375 -0.0625 L 0.78125 -0.0625 C 0.488281 -0.0625 0.34375 -0.203125 0.34375 -0.484375 L 0.34375 -2.390625 C 0.34375 -2.679688 0.488281 -2.828125 0.78125 -2.828125 Z M 1.28125 -2.390625 L 0.953125 -2.390625 C 0.890625 -2.390625 0.859375 -2.359375 0.859375 -2.296875 L 0.859375 -0.59375 C 0.859375 -0.53125 0.890625 -0.5 0.953125 -0.5 L 1.265625 -0.5 C 1.390625 -0.5 1.5 -0.507812 1.59375 -0.53125 C 1.695312 -0.550781 1.789062 -0.585938 1.875 -0.640625 C 2 -0.710938 2.09375 -0.816406 2.15625 -0.953125 C 2.226562 -1.085938 2.265625 -1.253906 2.265625 -1.453125 C 2.265625 -1.640625 2.226562 -1.800781 2.15625 -1.9375 C 2.09375 -2.070312 2 -2.175781 1.875 -2.25 C 1.800781 -2.300781 1.710938 -2.335938 1.609375 -2.359375 C 1.515625 -2.378906 1.40625 -2.390625 1.28125 -2.390625 Z M 1.28125 -2.390625 "/></g></g></g><g fill="#545454" fill-opacity="1"><g transform="translate(61.611477, 28.914435)"><g><path d="M 0.71875 -2.828125 L 2.203125 -2.828125 C 2.265625 -2.828125 2.3125 -2.800781 2.34375 -2.75 C 2.375 -2.695312 2.390625 -2.648438 2.390625 -2.609375 C 2.390625 -2.566406 2.375 -2.519531 2.34375 -2.46875 C 2.3125 -2.414062 2.265625 -2.390625 2.203125 -2.390625 L 0.9375 -2.390625 C 0.882812 -2.390625 0.859375 -2.363281 0.859375 -2.3125 L 0.859375 -1.703125 L 2.046875 -1.703125 C 2.109375 -1.703125 2.148438 -1.675781 2.171875 -1.625 C 2.203125 -1.570312 2.21875 -1.523438 2.21875 -1.484375 C 2.21875 -1.441406 2.203125 -1.394531 2.171875 -1.34375 C 2.148438 -1.289062 2.109375 -1.265625 2.046875 -1.265625 L 0.859375 -1.265625 L 0.859375 -0.578125 C 0.859375 -0.523438 0.882812 -0.5 0.9375 -0.5 L 2.265625 -0.5 C 2.328125 -0.5 2.375 -0.472656 2.40625 -0.421875 C 2.4375 -0.367188 2.453125 -0.320312 2.453125 -0.28125 C 2.453125 -0.238281 2.4375 -0.191406 2.40625 -0.140625 C 2.375 -0.0859375 2.328125 -0.0625 2.265625 -0.0625 L 0.71875 -0.0625 C 0.46875 -0.0625 0.34375 -0.179688 0.34375 -0.421875 L 0.34375 -2.453125 C 0.34375 -2.703125 0.46875 -2.828125 0.71875 -2.828125 Z M 0.71875 -2.828125 "/></g></g></g><g fill="#545454" fill-opacity="1"><g transform="translate(64.823235, 28.914435)"><g><path d="M 0.28125 -2.109375 C 0.28125 -2.234375 0.316406 -2.351562 0.390625 -2.46875 C 0.460938 -2.59375 0.570312 -2.691406 0.71875 -2.765625 C 0.875 -2.847656 1.066406 -2.890625 1.296875 -2.890625 C 1.453125 -2.890625 1.609375 -2.859375 1.765625 -2.796875 C 1.921875 -2.742188 2.050781 -2.671875 2.15625 -2.578125 C 2.195312 -2.515625 2.21875 -2.453125 2.21875 -2.390625 C 2.21875 -2.335938 2.203125 -2.289062 2.171875 -2.25 C 2.117188 -2.1875 2.054688 -2.15625 1.984375 -2.15625 C 1.921875 -2.15625 1.863281 -2.175781 1.8125 -2.21875 C 1.738281 -2.300781 1.660156 -2.359375 1.578125 -2.390625 C 1.492188 -2.429688 1.398438 -2.453125 1.296875 -2.453125 C 1.140625 -2.453125 1.015625 -2.425781 0.921875 -2.375 C 0.835938 -2.320312 0.796875 -2.242188 0.796875 -2.140625 C 0.796875 -2.035156 0.835938 -1.957031 0.921875 -1.90625 C 0.953125 -1.875 1.003906 -1.84375 1.078125 -1.8125 C 1.160156 -1.78125 1.273438 -1.742188 1.421875 -1.703125 C 1.566406 -1.660156 1.695312 -1.617188 1.8125 -1.578125 C 1.925781 -1.535156 2.019531 -1.484375 2.09375 -1.421875 C 2.207031 -1.335938 2.285156 -1.25 2.328125 -1.15625 C 2.367188 -1.0625 2.390625 -0.953125 2.390625 -0.828125 C 2.390625 -0.648438 2.34375 -0.5 2.25 -0.375 C 2.15625 -0.25 2.023438 -0.148438 1.859375 -0.078125 C 1.703125 -0.015625 1.515625 0.015625 1.296875 0.015625 C 1.085938 0.015625 0.894531 -0.0195312 0.71875 -0.09375 C 0.539062 -0.175781 0.398438 -0.273438 0.296875 -0.390625 C 0.234375 -0.453125 0.203125 -0.519531 0.203125 -0.59375 C 0.203125 -0.65625 0.21875 -0.707031 0.25 -0.75 C 0.300781 -0.8125 0.363281 -0.84375 0.4375 -0.84375 C 0.5 -0.84375 0.5625 -0.8125 0.625 -0.75 C 0.71875 -0.65625 0.816406 -0.578125 0.921875 -0.515625 C 1.035156 -0.460938 1.160156 -0.4375 1.296875 -0.4375 C 1.460938 -0.4375 1.597656 -0.46875 1.703125 -0.53125 C 1.804688 -0.59375 1.859375 -0.679688 1.859375 -0.796875 C 1.859375 -0.847656 1.847656 -0.894531 1.828125 -0.9375 C 1.804688 -0.988281 1.769531 -1.03125 1.71875 -1.0625 C 1.65625 -1.101562 1.578125 -1.140625 1.484375 -1.171875 C 1.390625 -1.210938 1.285156 -1.25 1.171875 -1.28125 C 0.992188 -1.332031 0.859375 -1.378906 0.765625 -1.421875 C 0.671875 -1.472656 0.597656 -1.519531 0.546875 -1.5625 C 0.367188 -1.675781 0.28125 -1.859375 0.28125 -2.109375 Z M 0.28125 -2.109375 "/></g></g></g><g fill="#545454" fill-opacity="1"><g transform="translate(68.046124, 28.914435)"><g><path d="M 0.359375 -2.828125 L 1.4375 -2.828125 C 1.488281 -2.828125 1.523438 -2.804688 1.546875 -2.765625 C 1.578125 -2.722656 1.59375 -2.679688 1.59375 -2.640625 C 1.59375 -2.597656 1.578125 -2.554688 1.546875 -2.515625 C 1.523438 -2.472656 1.488281 -2.453125 1.4375 -2.453125 L 1.15625 -2.453125 L 1.15625 -0.4375 L 1.4375 -0.4375 C 1.488281 -0.4375 1.523438 -0.414062 1.546875 -0.375 C 1.578125 -0.332031 1.59375 -0.289062 1.59375 -0.25 C 1.59375 -0.207031 1.578125 -0.164062 1.546875 -0.125 C 1.523438 -0.0820312 1.488281 -0.0625 1.4375 -0.0625 L 0.359375 -0.0625 C 0.296875 -0.0625 0.253906 -0.0820312 0.234375 -0.125 C 0.210938 -0.164062 0.203125 -0.207031 0.203125 -0.25 C 0.203125 -0.289062 0.210938 -0.332031 0.234375 -0.375 C 0.253906 -0.414062 0.296875 -0.4375 0.359375 -0.4375 L 0.640625 -0.4375 L 0.640625 -2.453125 L 0.359375 -2.453125 C 0.296875 -2.453125 0.253906 -2.472656 0.234375 -2.515625 C 0.210938 -2.554688 0.203125 -2.597656 0.203125 -2.640625 C 0.203125 -2.679688 0.210938 -2.722656 0.234375 -2.765625 C 0.253906 -2.804688 0.296875 -2.828125 0.359375 -2.828125 Z M 0.359375 -2.828125 "/></g></g></g><g fill="#545454" fill-opacity="1"><g transform="translate(70.471162, 28.914435)"><g><path d="M 0.1875 -1.4375 C 0.1875 -1.644531 0.21875 -1.835938 0.28125 -2.015625 C 0.351562 -2.191406 0.445312 -2.34375 0.5625 -2.46875 C 0.6875 -2.601562 0.832031 -2.707031 1 -2.78125 C 1.175781 -2.851562 1.367188 -2.890625 1.578125 -2.890625 C 1.710938 -2.890625 1.84375 -2.867188 1.96875 -2.828125 C 2.09375 -2.796875 2.207031 -2.75 2.3125 -2.6875 C 2.414062 -2.625 2.5 -2.550781 2.5625 -2.46875 C 2.59375 -2.414062 2.609375 -2.359375 2.609375 -2.296875 C 2.609375 -2.234375 2.582031 -2.175781 2.53125 -2.125 C 2.476562 -2.082031 2.421875 -2.0625 2.359375 -2.0625 C 2.285156 -2.0625 2.226562 -2.09375 2.1875 -2.15625 C 2.125 -2.238281 2.039062 -2.304688 1.9375 -2.359375 C 1.832031 -2.421875 1.707031 -2.453125 1.5625 -2.453125 C 1.3125 -2.453125 1.109375 -2.359375 0.953125 -2.171875 C 0.804688 -1.992188 0.734375 -1.75 0.734375 -1.4375 C 0.734375 -1.226562 0.769531 -1.050781 0.84375 -0.90625 C 0.914062 -0.757812 1.007812 -0.644531 1.125 -0.5625 C 1.238281 -0.488281 1.367188 -0.453125 1.515625 -0.453125 C 1.703125 -0.453125 1.851562 -0.507812 1.96875 -0.625 C 2.09375 -0.75 2.179688 -0.898438 2.234375 -1.078125 L 1.703125 -1.078125 C 1.640625 -1.078125 1.59375 -1.101562 1.5625 -1.15625 C 1.539062 -1.207031 1.53125 -1.253906 1.53125 -1.296875 C 1.53125 -1.328125 1.539062 -1.367188 1.5625 -1.421875 C 1.59375 -1.472656 1.640625 -1.5 1.703125 -1.5 L 2.453125 -1.5 C 2.648438 -1.5 2.75 -1.398438 2.75 -1.203125 L 2.75 -0.21875 C 2.75 -0.144531 2.722656 -0.09375 2.671875 -0.0625 C 2.628906 -0.03125 2.585938 -0.015625 2.546875 -0.015625 C 2.515625 -0.015625 2.476562 -0.0195312 2.4375 -0.03125 C 2.40625 -0.0390625 2.375 -0.0546875 2.34375 -0.078125 C 2.320312 -0.109375 2.3125 -0.15625 2.3125 -0.21875 L 2.3125 -0.46875 C 2.257812 -0.351562 2.191406 -0.257812 2.109375 -0.1875 C 2.023438 -0.125 1.925781 -0.078125 1.8125 -0.046875 C 1.695312 -0.015625 1.582031 0 1.46875 0 C 1.207031 0 0.984375 -0.0546875 0.796875 -0.171875 C 0.609375 -0.296875 0.457031 -0.46875 0.34375 -0.6875 C 0.238281 -0.90625 0.1875 -1.15625 0.1875 -1.4375 Z M 0.1875 -1.4375 "/></g></g></g><g fill="#545454" fill-opacity="1"><g transform="translate(74.118954, 28.914435)"><g><path d="M 2.15625 -2.671875 C 2.15625 -2.722656 2.171875 -2.757812 2.203125 -2.78125 C 2.234375 -2.8125 2.265625 -2.832031 2.296875 -2.84375 C 2.335938 -2.863281 2.375 -2.875 2.40625 -2.875 C 2.4375 -2.875 2.472656 -2.863281 2.515625 -2.84375 C 2.554688 -2.832031 2.585938 -2.8125 2.609375 -2.78125 C 2.640625 -2.75 2.65625 -2.710938 2.65625 -2.671875 L 2.65625 -0.359375 C 2.65625 -0.253906 2.628906 -0.171875 2.578125 -0.109375 C 2.523438 -0.046875 2.457031 -0.015625 2.375 -0.015625 L 2.359375 -0.015625 C 2.296875 -0.015625 2.234375 -0.0234375 2.171875 -0.046875 C 2.109375 -0.078125 2.046875 -0.144531 1.984375 -0.25 L 0.8125 -2.265625 L 0.84375 -0.21875 C 0.84375 -0.164062 0.828125 -0.125 0.796875 -0.09375 C 0.773438 -0.0625 0.742188 -0.0390625 0.703125 -0.03125 C 0.660156 -0.0195312 0.625 -0.015625 0.59375 -0.015625 C 0.539062 -0.015625 0.484375 -0.03125 0.421875 -0.0625 C 0.367188 -0.09375 0.34375 -0.144531 0.34375 -0.21875 L 0.34375 -2.5 C 0.34375 -2.601562 0.378906 -2.6875 0.453125 -2.75 C 0.523438 -2.820312 0.613281 -2.863281 0.71875 -2.875 L 0.75 -2.875 C 0.820312 -2.875 0.894531 -2.851562 0.96875 -2.8125 C 1.039062 -2.78125 1.101562 -2.710938 1.15625 -2.609375 L 2.1875 -0.8125 Z M 2.15625 -2.671875 "/></g></g></g></svg>